<mxfile host="app.diagrams.net" modified="2021-09-02T01:45:04.783Z" agent="5.0 (Macintosh; Intel Mac OS X 10_15_7) AppleWebKit/537.36 (KHTML, like Gecko) Chrome/92.0.4515.159 Safari/537.36" etag="maoI96z8YpUAabQmAuc2" version="15.0.4" type="github">
  <diagram id="N1c9PzyJVzpYJ9I7iCHp" name="第 1 页">
    <mxGraphModel dx="925" dy="605" grid="1" gridSize="10" guides="1" tooltips="1" connect="1" arrows="1" fold="1" page="1" pageScale="1" pageWidth="1169" pageHeight="827" math="0" shadow="0">
      <root>
        <mxCell id="0" />
        <mxCell id="1" parent="0" />
        <mxCell id="23eAzp7arHisbExdl6D5-9" value="" style="rounded=1;whiteSpace=wrap;html=1;fillColor=#dae8fc;strokeColor=#6c8ebf;" vertex="1" parent="1">
          <mxGeometry x="200" y="180" width="700" height="190" as="geometry" />
        </mxCell>
        <mxCell id="23eAzp7arHisbExdl6D5-15" value="" style="rounded=1;whiteSpace=wrap;html=1;fillColor=#dae8fc;strokeColor=#6c8ebf;" vertex="1" parent="1">
          <mxGeometry x="200" y="580" width="700" height="160" as="geometry" />
        </mxCell>
        <mxCell id="23eAzp7arHisbExdl6D5-18" value="" style="edgeStyle=orthogonalEdgeStyle;rounded=0;orthogonalLoop=1;jettySize=auto;html=1;" edge="1" parent="1" source="23eAzp7arHisbExdl6D5-16" target="23eAzp7arHisbExdl6D5-17">
          <mxGeometry relative="1" as="geometry" />
        </mxCell>
        <mxCell id="23eAzp7arHisbExdl6D5-16" value="write" style="outlineConnect=0;fontColor=#232F3E;gradientColor=none;fillColor=#527FFF;strokeColor=none;dashed=0;verticalLabelPosition=bottom;verticalAlign=top;align=center;html=1;fontSize=12;fontStyle=0;aspect=fixed;pointerEvents=1;shape=mxgraph.aws4.rds_mysql_instance;" vertex="1" parent="1">
          <mxGeometry x="297.43" y="606" width="108" height="108" as="geometry" />
        </mxCell>
        <mxCell id="23eAzp7arHisbExdl6D5-17" value="read" style="outlineConnect=0;fontColor=#232F3E;gradientColor=none;fillColor=#527FFF;strokeColor=none;dashed=0;verticalLabelPosition=bottom;verticalAlign=top;align=center;html=1;fontSize=12;fontStyle=0;aspect=fixed;pointerEvents=1;shape=mxgraph.aws4.rds_mysql_instance;" vertex="1" parent="1">
          <mxGeometry x="680" y="606" width="108" height="108" as="geometry" />
        </mxCell>
        <mxCell id="23eAzp7arHisbExdl6D5-8" value="" style="aspect=fixed;html=1;points=[];align=center;image;fontSize=12;image=img/lib/mscae/Cache_Redis_Product.svg;" vertex="1" parent="1">
          <mxGeometry x="245" y="220" width="142.85" height="120" as="geometry" />
        </mxCell>
        <mxCell id="23eAzp7arHisbExdl6D5-10" value="" style="aspect=fixed;html=1;points=[];align=center;image;fontSize=12;image=img/lib/mscae/Cache_Redis_Product.svg;" vertex="1" parent="1">
          <mxGeometry x="467.85" y="220" width="142.85" height="120" as="geometry" />
        </mxCell>
        <mxCell id="23eAzp7arHisbExdl6D5-12" value="" style="aspect=fixed;html=1;points=[];align=center;image;fontSize=12;image=img/lib/mscae/Cache_Redis_Product.svg;" vertex="1" parent="1">
          <mxGeometry x="690.7" y="220" width="142.85" height="120" as="geometry" />
        </mxCell>
        <mxCell id="23eAzp7arHisbExdl6D5-30" value="&lt;h1&gt;service&lt;/h1&gt;" style="rounded=1;whiteSpace=wrap;html=1;fillColor=#d5e8d4;strokeColor=#82b366;fontSize=13;" vertex="1" parent="1">
          <mxGeometry x="200" y="414" width="700" height="126" as="geometry" />
        </mxCell>
      </root>
    </mxGraphModel>
  </diagram>
</mxfile>
